<svg xmlns="http://www.w3.org/2000/svg"{{ with .width }} width="{{ . }}"{{ end }}{{ with .height }} height="{{ . }}"{{ end }}{{ with .class }} class="{{ . }}"{{ end }} viewBox="0 0 16 16" role="img"><title>{{ with .title }}{{ . }}{{ else }}rfi-fa-handshake{{ end }}</title>
  <path d="M.4 6.397c.22 0 .4-.18.4-.4 0-.22-.18-.4-.4-.4a.4.4 0 100 .8zm15.398-4.795l-2.838.005L11.68.36a1.19 1.19 0 00-.847-.353H8.31c-.26 0-.503.098-.708.25A1.203 1.203 0 006.87 0H5.132a1.2 1.2 0 00-.848.352l-1.25 1.25H.2a.2.2 0 00-.2.2v.4c0 .11.09.2.2.2h1.4V7.2H.2a.2.2 0 00-.2.2v.4c0 .11.09.2.2.2h1.4c.44 0 .795-.355.797-.793h.83l2.037 1.95a2.005 2.005 0 002.525-.005l.18.155a1.33 1.33 0 001.872-.192l.547-.673c.41.223 1.073.225 1.5-.3l.238-.292c.155-.19.24-.415.262-.643h1.215c.002.438.36.793.797.793h1.4a.2.2 0 00.2-.2v-.4a.2.2 0 00-.2-.2h-1.4V2.407l1.4-.005a.2.2 0 00.2-.2v-.4a.203.203 0 00-.202-.2zm-4.295 5.74l-.237.292a.4.4 0 01-.563.057l-.445-.36-1.037 1.275a.529.529 0 01-.735.085l-.765-.652-.26.32c-.417.512-1.174.592-1.664.197L3.549 6.404H2.4V2.4h.965L4.847.917A.401.401 0 015.129.8h1.737c.023.055.008.017.028.072L5.419 2.227a1.713 1.713 0 00-.105 2.422c.358.39 1.465.983 2.422.105l.57-.522 3.14 2.547c.17.14.195.392.057.562zm2.095-.938h-1.43a1.268 1.268 0 00-.22-.245L8.901 3.684l.71-.652a.4.4 0 10-.54-.59l-1.877 1.72a.944.944 0 01-1.292-.055.916.916 0 01.055-1.292L8.034.91a.402.402 0 01.27-.105h2.524a.4.4 0 01.285.12l1.518 1.477h.967zm2-.805c-.22 0-.4.18-.4.4 0 .22.18.4.4.4a.4.4 0 100-.8z"/>
</svg>
