<svg xmlns="http://www.w3.org/2000/svg"{{ with .width }} width="{{ . }}"{{ end }}{{ with .height }} height="{{ . }}"{{ end }}{{ with .class }} class="{{ . }}"{{ end }} viewBox="0 0 16 16" role="img"><title>{{ with .title }}{{ . }}{{ else }}rfi-box-fill{{ end }}</title>
  <path id="box1" d="M8.186 1.113a.5.5 0 00-.372 0L1.846 3.5 8 5.961 14.154 3.5zM15 4.239l-6.5 2.6v7.922l6.5-2.6V4.24zM7.443.184a1.5 1.5 0 011.114 0l7.129 2.852A.5.5 0 0116 3.5v8.662a1 1 0 01-.629.928l-7.185 2.874a.5.5 0 01-.372 0L.63 13.09a1 1 0 01-.63-.928V3.5a.5.5 0 01.314-.464z" fill-rule="evenodd"/>
</svg>
