<svg xmlns="http://www.w3.org/2000/svg"{{ with .width }} width="{{ . }}"{{ end }}{{ with .height }} height="{{ . }}"{{ end }}{{ with .class }} class="{{ . }}"{{ end }} viewBox="0 0 16 16" role="img"><title>{{ with .title }}{{ . }}{{ else }}rfi-cube{{ end }}</title><path d="M7.473.097l-6.5 2.48A1.528 1.528 0 000 4.01v7.158c0 .578.322 1.106.828 1.364l6.502 3.307c.422.216.918.216 1.34 0l6.502-3.307c.51-.258.828-.789.828-1.364V4.009c0-.636-.388-1.206-.972-1.428L8.527.1A1.45 1.45 0 007.473.097zm.529 1.975l6 2.29v.035l-6 2.48L2 4.397v-.035zm1 11.32V8.658l5-2.067v4.258z"/>
</svg>
