<svg version="1.1" xmlns="http://www.w3.org/2000/svg" xmlns:xlink="http://www.w3.org/1999/xlink" viewBox="0 0 832 416">
<defs>
    <linearGradient x1="0" y1="0" x2="1" y2="0" gradientUnits="userSpaceOnUse" gradientTransform="matrix(569.43773 364.94412 -552.7309 375.97494 147.527 33.94)" spreadMethod="pad" id="ivaSky">
      <stop style="stop-opacity:1;stop-color:#4deeff" offset="0"/>
      <stop style="stdefaultImageop-opacity:1;stop-color:#00a2ff" offset="1"/>
    </linearGradient>
  </defs>
    <symbol id="logo-artllux" viewBox="0 0 136 36">
      <path d="M0 16V0h5.202v16zM18.86 16 7.528 0h5.667l8.416 12.411L29.687 0h5.329L24.062 16zM39.845 0 28.51 16h5.667l8.416-12.411L50.67 16H56L45.047 0z"/>
      <path style="fill:#c06;" d="M44.755 13.5a2.5 2.5 0 0 1-2.5 2.5 2.5 2.5 0 0 1-2.5-2.5 2.5 2.5 0 0 1 2.5-2.5 2.5 2.5 0 0 1 2.5 2.5z"/>
      <path style="fill:#c06;" d="M0 18h56v4H0z"/>
      <path style="fill:#c06;" d="M12.755 13.5a2.5 2.5 0 0 1-2.5 2.5 2.5 2.5 0 0 1-2.5-2.5 2.5 2.5 0 0 1 2.5-2.5 2.5 2.5 0 0 1 2.5 2.5z"/>
      <path style="fill:#33ccff;" d="M69.25 35.4q-2.8 0-4.75-.5-1.95-.5-3.2-1.7-1.2-1.25-1.75-3.35Q59 27.7 59 24.4V0h11v22.1q0 1.2.1 2.05.1.85.4 1.4.35.5.95.75.65.2 1.7.2h.4q.2 0 .45-.05v8.75q-.5.05-1.25.05-.75.05-1.45.05-.7.05-1.3.05-.55.05-.75.05zM84.87 35.75q-4.25 0-6.5-2.4t-2.25-7.1V8.5h11V24q0 1.3.55 2.1.55.75 1.85.75t1.95-.75q.65-.8.65-2.1V8.5h11V35h-10.2v-3q-.9 1.55-2.85 2.65-1.9 1.1-5.2 1.1zM112.09 21.25l-6.5-12.75h11.9l2.8 6.45 2.65-6.45h11.65l-6.5 12.5 7 14h-11.9l-3.3-7.65-3.1 7.65h-11.7z"/>
    </symbol>
  <symbol id="ivaSun">
  <path fill="#feeb15" d="M 420.824,497.049 228.090,254.204 378.529,493.508 222.378,256.026 332.429,484.67 218.569,259.213 293.901,477.453 212.854,260.124 l 40.270,203.421 -45.510,-202.511 8.860,183.174 -13.860,-183.17369 -13.45351,161.97847 8.92975,-161.97847 -34.19568,147.39246 30.38621,-148.30313 -50.46401,134.86435 45.70217,-135.3197 -61.98517,122.36214 57.22335,-124.63882 -70.3637,110.66684 66.55421,-112.4882 -77.01005,97.06701 72.72441,-99.3437 -82.140122,88.93997 78.330662,-91.672 -86.554679,82.38323 83.221379,-85.5706 -93.846692,76.9518 90.989592,-80.13916 -96.33473,66.29972 93.47763,-69.03176 L 60.732831,296.65275 161.42625,237.3568 51.767724,281.59547 159.52153,232.34808 43.888966,266.09128 158.09296,227.7947 24.376142,248.99243 156.66441,221.87531 11.765801,228.65815 156.66441,217.09427 4.9427195,203.66179 156.18824,212.76855 0,178.6182 156.66441,209.12584 0,152.66393 159.04533,205.0278 0,126.25432 160.95006,201.84042 0,100.75538 161.90243,198.19773 0,75.256458 163.80717,194.55502 0,49.302189 165.7119,190.45698 0,23.34792 170.47374,187.26961 27.142468,23.34792 173.80702,182.26091 53.80875,23.34792 178.09267,179.9842 81.427398,23.34792 183.33071,177.70751 108.09368,25.328877 187.61634,175.88617 136.31529,30.536657 192.85438,174.97549 163.54999,36.857432 198.09239,174.06482 189.78838,45.122928 202.61615,173.15414 212.68268,53.331479 208.09225,173.60947 232.92265,65.546811 213.80646,174.06482 248.88671,72.316235 219.04447,176.3415 263.95096,81.351341 224.75869,178.6182 l 56.73238,-90.311081 -52.44674,93.043101 66.71744,-81.569766 -63.38414,84.301786 70.30841,-77.67386 -66.97515,80.86123 78.56567,-73.87438 -74.28001,76.60641 83.6728,-70.68109 -80.8157,75.23447 91.30747,-66.84135 -88.92655,70.48406 100.43611,-61.28662 -98.05518,64.92931 113.12516,-52.81758 -112.64897,57.82631 127.506,-43.02767 -127.02982,46.67038 142.9768,-31.00895 -142.02443,33.74097 162.64527,-8.74265 -163.59764,12.61304 188.78584,15.55988 -188.78584,-11.68952 209.5799,46.91766 -212.62015,-43.00726 231.47431,77.0564 L 246.66314,230.98207 498.02158,357.20816 244.7584,235.53545 506.96502,392.81743 242.85365,238.72281 510.26919,422.82982 240.94894,241.45483 504.00914,453.96082 238.09183,245.55289 509.57083,511.21035 235.23473,247.82957 467.49931,507.52281 231.42526,251.47228 Z"/>
</symbol>
  <!-- <path d="M0 0h832v412H0z" fill="#d7f4ff"/> -->
 <path d="M0 416h832V0H0z" style="fill:url(#ivaSky);stroke:none;stroke-width:.34"/>
  <use xlink:href="#ivaSun" transform="translate(50,-30) scale(.6)" />
  <use xlink:href="#logo-artllux" transform="translate(283,165) scale(.6)"/>
  <path d="M44 78.776a22.023 22.023 0 0 0-.714 5.57c0 12.146 9.847 21.992 21.992 21.992a22 22 0 0 0 5.684-.745c3.974 5.696 10.571 9.426 18.044 9.426 2.965 0 5.79-.59 8.371-1.654 3.853 6.367 10.844 10.624 18.829 10.624 12.146 0 21.991-9.845 21.991-21.991 0-1.174-.093-2.325-.27-3.449 1.576.36 3.215.555 4.9.555 12.146 0 21.992-9.846 21.992-21.991 0-12.146-9.846-21.992-21.992-21.992-1.184 0-2.345.096-3.479.277.001-.092.007-.184.007-.277 0-12.146-9.845-21.992-21.991-21.992-3.675 0-7.135.906-10.18 2.5a21.887 21.887 0 0 0-12.97-4.236c-9.127 0-16.954 5.562-20.282 13.48-.459.146-.91.31-1.355.485a21.898 21.898 0 0 0-13.954-4.994c-12.145 0-21.991 9.845-21.991 21.991 0 6.53 2.849 12.393 7.368 16.421" style="fill:#fff;fill-opacity:1;fill-rule:nonzero;stroke:none;stroke-width:.241659"/>
</svg>
