<svg version="1.1" xmlns="http://www.w3.org/2000/svg" xmlns:xlink="http://www.w3.org/1999/xlink" viewBox="0 0 832 416">
<defs>
    <linearGradient x1="0" y1="0" x2="1" y2="0" gradientUnits="userSpaceOnUse" gradientTransform="matrix(569.43773 364.94412 -552.7309 375.97494 147.527 33.94)" spreadMethod="pad" id="ivaSky">
      <stop style="stop-opacity:1;stop-color:#4deeff" offset="0"/>
      <stop style="stdefaultImageop-opacity:1;stop-color:#00a2ff" offset="1"/>
    </linearGradient>
  </defs>
    <symbol id="logo-cybmir" viewBox="0 0 76 32">
      <path style="fill:#111;" d="M0 7.468c0 3.137 2.107 5.417 4.712 5.417 1.926 0 4.531-1.625 4.531-2.392 0-.18-.136-.339-.362-.339-.25 0-.454.135-.907.474-.317.226-1.042.587-1.653.587-2.289 0-3.648-2.077-3.648-4.785 0-2.528 1.246-3.837 2.424-3.837.906 0 1.405.857 1.722 1.58.25.564.476.812.816.812.43 0 1.517-1.015 1.517-1.377 0-.36-.543-.835-1.2-1.173-.748-.384-1.54-.61-2.583-.61C2.175 1.825 0 4.534 0 7.468zm8.309-.327c0 .203.09.361.317.361.77.045 1.223.248 1.518.948l4.123 9.412c.068.136.068.248.068.339 0 .113-.068.338-.159.519-.793 1.422-1.97 2.73-3.353 3.86-.294.225-.544.45-.544.586 0 .384.997.745 2.13.745.544 0 .86-.79 1.133-1.467l4.961-12.798c.544-1.377 1.11-1.963 2.13-2.144.226-.045.453-.158.453-.361 0-.271-.227-.316-.363-.316-.158 0-.43.045-.883.09-.521.068-.884.09-1.178.09-.295 0-.657-.022-1.178-.09-.454-.045-.725-.09-.884-.09-.136 0-.25.09-.25.316 0 .203.091.338.318.361.702.045 1.11.429 1.11 1.038 0 .655-.159 1.31-.476 2.144l-1.586 4.131-2.627-6.026c-.046-.113-.182-.43-.182-.587 0-.587.567-.655 1.11-.7.227-.023.318-.158.318-.361 0-.226-.091-.316-.227-.316-.294 0-.906.045-1.36.09-.52.045-1.087.09-1.517.09-.43 0-.997-.045-1.518-.09-.453-.045-.951-.09-1.178-.09-.136 0-.227.09-.227.316zm9.937 8.179c0 .293.113.293.362.316.317.022.816.09 1.087.226.272.135.386.316.386.79V28.14c0 .43-.159 1.377-.295 1.851-.113.429-.181.632-.181.813 0 .158.589.27 1.155.338.521.068 1.224.203 1.7.361.724.249 1.494.497 2.287.497 2.56 0 5.845-2.393 5.845-6.117 0-2.889-1.608-4.762-4.055-4.762-1.608 0-3.013.88-3.851 1.467l-.068-.045v-7.178c0-.316-.023-.632-.499-.632-.362 0-.974.045-1.699.113-.566.045-1.495.113-1.812.113-.294 0-.362.09-.362.36zM22.618 29.2v-5.8c.612-.52 1.518-.971 2.175-.971 2.378 0 3.149 2.573 3.149 4.672 0 2.144-.997 3.927-2.719 3.927-1.11 0-2.605-.451-2.605-1.828zm9.917-2.708c0 2.73 1.676 5.507 4.825 5.507 1.926 0 4.463-1.648 4.463-2.415 0-.18-.113-.339-.34-.339-.249 0-.43.136-.815.43-.363.27-.974.699-1.813.699-1.767 0-3.217-1.287-3.579-3.363l6.207-1.806c.43-.113.703-.384.703-.88 0-1.242-1.156-3.386-4.395-3.386-2.9 0-5.256 2.37-5.256 5.553zm2.56-1.016c0-2.438 1.2-3.77 2.378-3.77 1.632 0 2.13 1.355 2.13 2.438 0 .723-.294 1.016-.86 1.174l-3.58 1.038a5.987 5.987 0 0 1-.068-.88zm8.104 6.072c0 .225.091.316.227.316.294 0 .906-.046 1.36-.09.52-.046 1.087-.091 1.517-.091.43 0 .997.045 1.518.09.453.045 1.065.09 1.36.09.135 0 .226-.09.226-.315 0-.204-.068-.339-.295-.339l-.951-.068c-.295-.022-.59-.113-.59-.541v-6.207c.77-.926 1.632-1.67 2.266-1.67.566 0 .929.473 1.246.992.204.339.317.52.566.52.204 0 .725-.384 1.201-.813.43-.384.793-.745.793-.925 0-.407-.68-1.445-2.107-1.445-1.291 0-2.718 1.106-3.874 2.235l-.09-.068v-1.422c0-.316-.023-.632-.499-.632-.362 0-.974.068-1.699.135-.566.045-1.495.09-1.812.09-.295 0-.363.09-.363.362 0 .293.136.293.386.316.317.022.792.09 1.064.225.272.136.385.316.385.79v7.517c0 .428-.271.519-.566.541l-.951.068c-.227 0-.318.135-.318.339z"/>
      <path style="fill:#cc0f16;" d="M26.608 16.336c0 .762.199 1.862.85 1.862h2.35c.567 0 .595-.226.595-.592 0-.367-.283-1.327-.453-1.919-.198-.649-.482-2.568-.482-3.019 0-1.27.227-2.003.793-2.878.17-.254.623-.874 1.02-.874.141 0 .255.197.311.423.85 2.737 1.813 5.699 2.69 8.097.199.593.284.762.737.762h2.124c.34 0 .481-.113.481-.451 0-.367-.255-1.016-.566-1.834-.114-.31-.34-.903-.34-1.072 0-.226.056-.48.113-.65l1.784-5.473h.17c.538 1.947 2.124 6.433 2.917 8.605.198.536.311.875.793.875h1.614c.51 0 .764-.113.764-.564 0-.423-.254-1.27-.453-1.834-1.189-3.527-2.378-6.969-3.2-9.621-.283-.931-.623-1.072-2.095-1.072-.51 0-1.076.197-1.246.338.141.48.255 1.383.255 1.58 0 .565-.114.988-.312 1.58l-1.586 4.91h-.085c-.85-2.342-1.67-4.938-2.265-7.336-.227-.931-.708-1.072-2.18-1.072-.51 0-1.077.197-1.246.338.141.367.283 1.411.283 1.608 0 .283-.029.706-.085.819-.085.169-.113.225-.34.48-1.303 1.466-2.039 2.398-2.804 3.836-.68 1.298-.906 2.822-.906 4.148zm18.48-14.7c0 1.326.34 1.665 1.671 1.665s1.671-.339 1.671-1.665S48.09 0 46.76 0c-1.332 0-1.671.31-1.671 1.636zm5.324 0c0 1.326.34 1.665 1.671 1.665s1.643-.339 1.643-1.665S53.414 0 52.083 0c-1.33 0-1.67.31-1.67 1.636zm-2.605 16.562c.482.085.991.141 1.586.141.595 0 1.133-.056 1.614-.141V5.361c0-.198-.595-.31-.991-.31-.765 0-1.331.084-2.209.479zm6.927-5.953c0 .93.113 2.737.51 5.022.538 2.962 1.727 10.354 1.727 11.483 0 .875-.283 1.75-.651 2.116-.142.113-.454.452-.454.649 0 .141.17.31.369.31.99 0 2.293-.761 2.945-1.834.481-.761.793-1.438.793-3.047 0-.48-1.161-7.843-1.36-9.085l.057-.056c.85.564 2.01.762 2.832.762 2.463 0 3.766-1.89 3.766-4.289 0-1.693-.736-3.78-1.784-6.376-.51-1.242-1.33-3.104-2.067-3.104-1.898 0-3.37.847-4.163 1.524-1.84 1.608-2.52 3.752-2.52 5.925zM56.97 9.48c0-2.229 1.472-3.216 1.954-3.216.538 0 1.387 2.341 1.756 3.329.906 2.426 1.387 4.26 1.387 5.925 0 1.495-.68 2.06-1.699 2.06-.51 0-1.416-.311-1.869-1.13-.198-.366-.793-1.833-1.048-3.075-.311-1.467-.481-2.962-.481-3.893zm5.195 11.808c0 .164.094.398.14.561.259.726.682 2.013.823 2.504.117.375.258.492.422.492.165 0 .306-.117.376-.515.094-.632.282-1.708.564-2.153.376-.585.963-.796 1.762-.796.587 0 .634.094.634.656v9.033c0 .444.563.538 1.033.538h7.211c.493 0 .869 0 .869-.445 0-.398-.775-2.036-1.433-3.252-.704-1.358-1.62-3.066-2.067-3.066-.211 0-.775.328-1.08.515-.493.28-1.104.538-1.62.538-.236 0-.283-.234-.283-.468v-3.674c0-.585-.023-.96-.563-.96h-6.06c-.353 0-.728.024-.728.492zm7.351 9.29v-3.58c0-.328.118-.421.776-.421.21 0 .516.07.634.117.258.093.634.748 1.432 2.293.447.866.635 1.31.635 1.568 0 .28-.282.374-.799.374h-2.114c-.329 0-.564-.093-.564-.35z"/>
      <path d="M4.075 23.954c.049-.036.058-.092.022-.142-.036-.049-.093-.058-.142-.022-.033.024-.042.08-.007.13.036.05.093.058.126.034zm.045-.284c.049-.035.058-.092.022-.142-.024-.032-.081-.041-.13-.006-.034.024-.059.093-.035.126.036.05.11.046.143.022zm-.248-.097c.033-.024.042-.08.006-.13a.088.088 0 0 0-.114-.018c-.05.036-.058.093-.034.126.036.05.093.058.142.022zM6.504 28.7a.087.087 0 0 0-.018.114c.036.05.093.058.126.034.05-.036.058-.092.022-.142-.024-.032-.08-.041-.13-.006zm-.057.268c-.033.024-.042.08-.006.13.024.033.08.042.114.018.05-.036.058-.093.034-.126-.036-.05-.093-.058-.142-.022zm.264.085c-.05.036-.059.093-.023.142.036.05.093.058.142.022.033-.024.042-.08.006-.13-.036-.049-.093-.058-.125-.034zm-.955-2.724a.507.507 0 0 0-.084-.392.524.524 0 0 0-.728-.1.723.723 0 0 0-.141.152c-.483-.177-.54-.186-.843-.394a.448.448 0 0 1-.112-.12c-.276-.377-.154-.867.258-1.166.28-.203.632-.307.8-.077 0 0-.135.022-.217.082-.083.06-.145.18-.002.378.096.131.231.109.347.025.181-.131.262-.366.118-.563-.312-.427-.827-.305-1.207-.03-.313.227-.613.645-.352 1.21a1.191 1.191 0 0 1-.189-.19c-.156-.214-.241-.503-.144-.75a.985.985 0 0 1 .345-.425l.149-.108c.05-.036.066-.048.042-.08-.024-.033-.105-.075-.37.116-.148.107-.34.397-.34.397s.486-.854.09-1.396c-.023-.033-.043-.094-.079-.144-.24-.328-.655-.38-1.001-.128-.28.203-.313.503-.122.766.06.082.137.152.243.125.095-.043-.142-.022-.195-.336-.042-.195.038-.328.186-.436.231-.167.549-.146.717.084l.024.033c.276.378.162.912.162.912s-.027-.106-.147-.27c-.192-.263-.324-.167-.324-.167l.144.197c.324.443-.086 1.092.334 1.667.396.542 1.004.754 1.592 1.006.012.017-.005.029.007.045a.72.718 0 0 0 .138.327.534.534 0 0 0 .712.112.628.628 0 0 0 .108-.128c.495.194.645.261.947.47.053.036.077.07.113.119.276.377.154.867-.258 1.166-.28.203-.633.308-.8.078 0 0 .134-.023.217-.083.082-.06.145-.18.001-.377-.096-.132-.23-.11-.33-.038-.197.144-.278.378-.123.592.288.394.816.288 1.195.013.314-.227.613-.645.353-1.21.064.054.14.124.189.19.155.214.24.504.143.75a.985.985 0 0 1-.345.426l-.148.107c-.05.036-.066.048-.042.08.024.034.105.075.369-.116.148-.107.34-.397.34-.397s-.486.854-.09 1.397c.024.032.044.094.08.143.251.345.667.396 1.013.145a.543.543 0 0 0 .126-.795c-.06-.082-.153-.14-.26-.113-.094.043.143.022.195.336.042.196-.037.328-.186.436-.23.167-.548.146-.716-.084l-.024-.033c-.276-.378-.162-.912-.162-.912s.027.106.147.27c.18.247.324.167.324.167l-.144-.197c-.276-.378.012-.812-.172-1.307a1.64 1.64 0 0 0-.19-.364c-.408-.559-1.07-.808-1.68-1.093z" style="fill:#cc0f16;"/>
    </symbol>
  <symbol id="ivaSun">
  <path fill="#feeb15" d="M 420.824,497.049 228.090,254.204 378.529,493.508 222.378,256.026 332.429,484.67 218.569,259.213 293.901,477.453 212.854,260.124 l 40.270,203.421 -45.510,-202.511 8.860,183.174 -13.860,-183.17369 -13.45351,161.97847 8.92975,-161.97847 -34.19568,147.39246 30.38621,-148.30313 -50.46401,134.86435 45.70217,-135.3197 -61.98517,122.36214 57.22335,-124.63882 -70.3637,110.66684 66.55421,-112.4882 -77.01005,97.06701 72.72441,-99.3437 -82.140122,88.93997 78.330662,-91.672 -86.554679,82.38323 83.221379,-85.5706 -93.846692,76.9518 90.989592,-80.13916 -96.33473,66.29972 93.47763,-69.03176 L 60.732831,296.65275 161.42625,237.3568 51.767724,281.59547 159.52153,232.34808 43.888966,266.09128 158.09296,227.7947 24.376142,248.99243 156.66441,221.87531 11.765801,228.65815 156.66441,217.09427 4.9427195,203.66179 156.18824,212.76855 0,178.6182 156.66441,209.12584 0,152.66393 159.04533,205.0278 0,126.25432 160.95006,201.84042 0,100.75538 161.90243,198.19773 0,75.256458 163.80717,194.55502 0,49.302189 165.7119,190.45698 0,23.34792 170.47374,187.26961 27.142468,23.34792 173.80702,182.26091 53.80875,23.34792 178.09267,179.9842 81.427398,23.34792 183.33071,177.70751 108.09368,25.328877 187.61634,175.88617 136.31529,30.536657 192.85438,174.97549 163.54999,36.857432 198.09239,174.06482 189.78838,45.122928 202.61615,173.15414 212.68268,53.331479 208.09225,173.60947 232.92265,65.546811 213.80646,174.06482 248.88671,72.316235 219.04447,176.3415 263.95096,81.351341 224.75869,178.6182 l 56.73238,-90.311081 -52.44674,93.043101 66.71744,-81.569766 -63.38414,84.301786 70.30841,-77.67386 -66.97515,80.86123 78.56567,-73.87438 -74.28001,76.60641 83.6728,-70.68109 -80.8157,75.23447 91.30747,-66.84135 -88.92655,70.48406 100.43611,-61.28662 -98.05518,64.92931 113.12516,-52.81758 -112.64897,57.82631 127.506,-43.02767 -127.02982,46.67038 142.9768,-31.00895 -142.02443,33.74097 162.64527,-8.74265 -163.59764,12.61304 188.78584,15.55988 -188.78584,-11.68952 209.5799,46.91766 -212.62015,-43.00726 231.47431,77.0564 L 246.66314,230.98207 498.02158,357.20816 244.7584,235.53545 506.96502,392.81743 242.85365,238.72281 510.26919,422.82982 240.94894,241.45483 504.00914,453.96082 238.09183,245.55289 509.57083,511.21035 235.23473,247.82957 467.49931,507.52281 231.42526,251.47228 Z"/>
</symbol>
  <!-- <path d="M0 0h832v412H0z" fill="#d7f4ff"/> -->
 <path d="M0 416h832V0H0z" style="fill:url(#ivaSky);stroke:none;stroke-width:.34"/>
  <use xlink:href="#ivaSun" transform="translate(50,-30) scale(.6)" />
  <use xlink:href="#logo-cybmir" transform="translate(283,165) scale(.4)"/>
  <path d="M44 78.776a22.023 22.023 0 0 0-.714 5.57c0 12.146 9.847 21.992 21.992 21.992a22 22 0 0 0 5.684-.745c3.974 5.696 10.571 9.426 18.044 9.426 2.965 0 5.79-.59 8.371-1.654 3.853 6.367 10.844 10.624 18.829 10.624 12.146 0 21.991-9.845 21.991-21.991 0-1.174-.093-2.325-.27-3.449 1.576.36 3.215.555 4.9.555 12.146 0 21.992-9.846 21.992-21.991 0-12.146-9.846-21.992-21.992-21.992-1.184 0-2.345.096-3.479.277.001-.092.007-.184.007-.277 0-12.146-9.845-21.992-21.991-21.992-3.675 0-7.135.906-10.18 2.5a21.887 21.887 0 0 0-12.97-4.236c-9.127 0-16.954 5.562-20.282 13.48-.459.146-.91.31-1.355.485a21.898 21.898 0 0 0-13.954-4.994c-12.145 0-21.991 9.845-21.991 21.991 0 6.53 2.849 12.393 7.368 16.421" style="fill:#fff;fill-opacity:1;fill-rule:nonzero;stroke:none;stroke-width:.241659"/>
</svg>
