<svg xml:space="preserve" viewBox="0 0 640 320" xmlns:xlink="http://www.w3.org/1999/xlink" xmlns="http://www.w3.org/2000/svg">
  <defs>
    <linearGradient x1="0" y1="0" x2="1" y2="0" gradientUnits="userSpaceOnUse" gradientTransform="matrix(439 284 -425 293 113 26)" spreadMethod="pad" id="ivaBg">
      <stop style="stop-opacity:1;stop-color:#00e7ff" offset="0"/>
      <stop style="stop-opacity:1;stop-color:#00a2ff" offset="1"/>
    </linearGradient>
  </defs>
  <path d="M0 320h640V0H0z" style="fill:url(#ivaBg);"/>
  <symbol id="ivalogo" viewBox="0 0 136 36">
    <path d="M0 16V0h5.202v16zm18.86 0L7.528 0h5.667l8.416 12.411L29.687 0h5.329L24.062 16zM39.845 0 28.51 16h5.667l8.416-12.411L50.67 16H56L45.047 0z"/>
    <path style="fill:#c06" d="M44.755 13.5a2.5 2.5 0 0 1-2.5 2.5 2.5 2.5 0 0 1-2.5-2.5 2.5 2.5 0 0 1 2.5-2.5 2.5 2.5 0 0 1 2.5 2.5zM0 18h56v4H0zM12.755 13.5a2.5 2.5 0 0 1-2.5 2.5 2.5 2.5 0 0 1-2.5-2.5 2.5 2.5 0 0 1 2.5-2.5 2.5 2.5 0 0 1 2.5 2.5z"/>
    <path style="fill:#3cf" d="M69.25 35.4q-2.8 0-4.75-.5-1.95-.5-3.2-1.7-1.2-1.25-1.75-3.35Q59 27.7 59 24.4V0h11v22.1q0 1.2.1 2.05.1.85.4 1.4.35.5.95.75.65.2 1.7.2h.4q.2 0 .45-.05v8.75q-.5.05-1.25.05-.75.05-1.45.05-.7.05-1.3.05-.55.05-.75.05zm15.62.35q-4.25 0-6.5-2.4t-2.25-7.1V8.5h11V24q0 1.3.55 2.1.55.75 1.85.75t1.95-.75q.65-.8.65-2.1V8.5h11V35h-10.2v-3q-.9 1.55-2.85 2.65-1.9 1.1-5.2 1.1zm27.22-14.5-6.5-12.75h11.9l2.8 6.45 2.65-6.45h11.65l-6.5 12.5 7 14h-11.9l-3.3-7.65-3.1 7.65h-11.7z"/>
  </symbol>
<path id="ivaSun" fill="#feeb15" d="M 228.90599,223.61855 139.95278,111.53659 209.38512,221.9843 137.31544,112.3772 188.10822,217.90504 135.55723,113.8483 l 34.76917,100.72612 -37.40649,-100.3058 18.58337,93.88667 -21.00092,-93.46636 4.08924,84.5417 -6.3969,-84.5417 -6.20931,74.75929 4.12142,-74.75929 -15.78262,68.02728 14.02441,-68.44759 -23.29109,62.24508 21.09331,-62.45525 -28.60854,56.47484 26.41078,-57.52561 -32.47555,51.077 30.71732,-51.91763 -35.5431,44.80016 33.56512,-45.85094 -37.91083,41.04922 36.15261,-42.31016 -39.94831,38.02303 38.40987,-39.49412 -43.31386,35.51622 41.9952,-36.98731 -44.46219,30.59987 43.14352,-31.86081 -47.57277,25.47596 46.47389,-27.36736 L 58.57235,124.17866 108.30488,101.4491 54.936,117.02288 107.64554,99.34754 45.930083,109.1311 106.98621,96.61551 40.109926,99.74605 106.98621,94.40888 36.960811,88.20927 106.76644,92.41239 34.679556,76.650689 106.98621,90.73114 34.679556,64.671795 108.08509,88.83974 34.679556,52.482744 108.9642,87.36864 34.679556,40.714003 109.40375,85.6874 34.679556,28.94527 110.28286,84.00614 34.679556,16.966376 111.16197,82.11474 34.679556,4.987483 113.35974,80.64365 47.206849,4.987483 114.89818,78.33194 59.51436,4.987483 116.87617,77.28115 72.26143,4.987483 119.29373,76.23037 84.56895,5.901771 l 36.70276,69.487981 -23.6774,-67.08439 26.09496,66.664076 -13.5251,-63.746796 15.94264,63.326487 -3.83262,-59.511642 5.92051,59.091328 4.64609,-55.302766 -2.11866,55.512918 11.46019,-49.875073 -8.82286,50.085235 L 149.55034,27.588244 135.777,75.599904 156.50308,31.758293 138.41434,76.650689 164.59851,34.968652 140.39232,77.911621 171.18499,40.264037 141.93077,79.17255 174.3808,43.32308 143.4692,80.64365 179.73028,46.54778 145.44719,81.90458 184.06541,49.282543 146.76586,84.00614 188.90776,53.156291 147.86474,85.6874 194.21987,57.401263 148.96363,87.36864 201.17524,62.991292 149.18341,89.68036 208.03234,69.821434 149.40319,91.36161 215.39248,77.049786 149.84274,92.62254 l 75.06705,-4.03507 -75.5066,5.82141 87.13192,7.18148 -87.13192,-5.39516 96.72918,21.6543 L 148,98 254.83429,133.56449 148.52408,100.81863 264.53567,159.07682 147.64497,102.92019 268.66341,175.51187 146.76586,104.39128 270.18841,189.36374 145.88676,105.65221 267.29916,203.7319 144.56809,107.54362 269.86609,230.15476 143.24943,108.5944 250.44847,228.45282 141.49121,110.27565 Z"/>
  <path id="ivaCloud" fill="#fff" d="m 26.898673,66.315544 a 21.465979,21.406383 0 0 0 -0.696424,5.41448 c 0,11.805483 9.597056,21.375046 21.435406,21.375046 a 21.449843,21.390291 0 0 0 5.539114,-0.72498 c 3.874493,5.53728 10.304521,9.16303 17.58724,9.16303 a 21.366613,21.307292 0 0 0 8.160046,-1.60833 c 3.754742,6.18857 10.568655,10.32673 18.351605,10.32673 11.83835,0 21.43455,-9.57041 21.43455,-21.375052 0,-1.140827 -0.0917,-2.259633 -0.26412,-3.352185 a 21.461733,21.402149 0 0 0 4.77645,0.539501 c 11.83918,0 21.43455,-9.570411 21.43455,-21.375047 0,-11.805483 -9.59622,-21.375047 -21.43455,-21.375047 -1.15335,0 -2.28631,0.09316 -3.39124,0.269327 8.4e-4,-0.08978 0.006,-0.179552 0.006,-0.269327 0,-11.805482 -9.59621,-21.375047 -21.43457,-21.375047 A 21.330941,21.27172 0 0 0 88.48229,24.377664 21.33264,21.273413 0 0 0 75.840502,20.26154 c -8.896386,0 -16.52562,5.404318 -19.769084,13.102146 A 20.835801,20.777955 0 0 0 54.751112,33.834585 21.344531,21.285272 0 0 0 41.15047,28.97993 c -11.8375,0 -21.434556,9.570412 -21.434556,21.375048 0,6.346961 2.777201,12.045166 7.182504,15.960566 z"/>
  <use xlink:href="#ivalogo" transform="translate(200,115) scale(.5)"/>
</svg>
