<svg id="multifile" width="256" height="256" viewBox="0 0 32 32" xmlns="http://www.w3.org/2000/svg" xmlns:svg="http://www.w3.org/2000/svg" >
<title>Шаблон для иконок файлов</title>
<desc>
В шаблоне — две части: графическая (рамка) и текстовая (формат)
1. Обычная рамка разделена на два фрагмента: 'id filetop' 'и id hook'. Она подходит для большинства расширений: .png, .jpg, .txt и пр.
2. Если расширение короткое: .md, .go и т.п. то включается трений фрагмент - 'id appendix'. Возможно, его ширину придется изменить.
3. Для длинных расширений нужно оставить только фрагмент 'id filetop', о остальные - закомментировать.
3. Точка —  circle 'id point'. Прижата к левому краю.
4. Текст по умолчанию - моноширинный Fira Code, uppercase 12px = .78em. Стили: font-family:'Fira Code'; font-weight:bold; letter-spacing:-.1; text-transform:uppercase; font-size:12px; fill:#c06;
</desc>
    <path id="filetop" style="fill:#33ccff;" d="M 12,0 C 9.8,0 8,1.8 8,4 v 18 h 2 V 4 c 0,-1.1 0.9,-2 2,-2 h 11 v 4 c 0,1.66 1.34,3 3,3 h 4 v 13 h 2 V 9 L 23,0 Z" />
    <path id="hook" fill="#33ccff" d="m 30,22 v 6 c 0,1.11 -0.9,2 -2,2 h -2 v 2 h 2 c 2.21,0 4,-1.8 4,-4 v -6 z" />
<!-- <rect id="appendix" x="18" y="30" width="8" height="2" fill="#33ccff"  /> -->
<circle id="point" cx="1.2" cy="30.8" r="1.2" fill="#c06" />
<text x="3" y="31.9" style="font-family:'Fira Code'; font-weight:bold;letter-spacing:-.1;text-transform:uppercase;font-size:12px;fill:#c06;">
<!-- webm -->
png
</text>
</svg>
