<svg viewBox="0 0 640 320" xmlns:xlink="http://www.w3.org/1999/xlink" xmlns="http://www.w3.org/2000/svg">
  <defs>
    <linearGradient x1="0" y1="0" x2="1" y2="0" gradientUnits="userSpaceOnUse" gradientTransform="matrix(439 284 -425 293 113 26)" spreadMethod="pad" id="a">
      <stop style="stop-opacity:1;stop-color:#00e7ff" offset="0"/>
      <stop style="stop-opacity:1;stop-color:#00a2ff" offset="1"/>
    </linearGradient>
  </defs>
  <path d="M0 320h640V0H0z" style="fill:url(#a)"/>
  <path fill="#feeb15" d="m218.906 217.619-88.953-112.082 69.432 110.447-72.07-109.607 50.793 105.528-52.55-104.057 34.768 100.726L122.92 108.27l18.583 93.886-21-93.466 4.089 84.542-6.397-84.542-6.21 74.76 4.122-74.76-15.783 68.027 14.025-68.447-23.291 62.245 21.093-62.456-28.609 56.475 26.411-57.525-32.475 51.077 30.717-51.918-35.543 44.8 33.565-45.85-37.911 41.048 36.153-42.31-39.949 38.023 38.41-39.494L59.606 137.9l41.996-36.987-44.463 30.6 43.144-31.86-47.573 25.475 46.474-27.367-50.612 20.418 49.733-22.73-53.369 15.574 52.71-17.675-61.716 9.783 61.056-12.515-66.876 3.13 66.876-5.337-70.025-6.2 69.805 4.203L24.68 70.651l72.306 14.08-72.306-26.06L98.085 82.84 24.68 46.483l74.284 34.886L24.68 34.714l74.724 44.973L24.68 22.945l75.603 55.061-75.603-67.04 76.482 65.149L24.68-1.013l78.68 75.657L37.207-1.013l67.691 73.345L49.514-1.013l57.362 72.294L62.261-1.013l47.033 71.243L74.569-.098l36.703 69.488L87.594 2.305 113.69 68.97 100.165 5.224l15.943 63.326-3.833-59.512 5.92 59.092 4.647-55.303-2.119 55.513 11.46-49.875-8.823 50.085 16.191-46.96-13.773 48.01 20.726-43.84-18.089 44.892L154.6 28.969l-24.207 42.943 30.793-37.648-29.254 38.909 32.45-35.85-30.912 37.32 36.261-34.095-34.283 35.357 38.618-32.622-37.3 34.723 42.143-30.85-41.043 32.531 46.355-28.286-45.256 29.968 52.211-24.378-51.992 26.69 58.85-19.86-58.63 21.54 65.99-14.311-65.55 15.573 75.067-4.036-75.507 5.822 87.132 7.181-87.132-5.395 96.73 21.654L138 92l106.834 35.564-106.31-32.745 116.012 58.258L137.645 96.92l121.018 72.592-121.897-71.12 123.422 84.972-124.301-83.712 121.412 98.08-122.73-96.188 125.297 122.61-126.617-121.56 107.2 119.859L131.49 104.276z"/>
  <path fill="#fff" d="M16.899 60.316a21.466 21.406 0 0 0-.697 5.414c0 11.806 9.597 21.375 21.436 21.375a21.45 21.39 0 0 0 5.539-.725c3.874 5.537 10.304 9.163 17.587 9.163a21.367 21.307 0 0 0 8.16-1.608c3.755 6.188 10.569 10.327 18.352 10.327 11.838 0 21.434-9.57 21.434-21.376 0-1.14-.091-2.26-.264-3.352a21.462 21.402 0 0 0 4.777.54c11.839 0 21.434-9.57 21.434-21.375 0-11.806-9.596-21.375-21.434-21.375a21.53 21.53 0 0 0-3.392.269c.001-.09.006-.18.006-.27 0-11.805-9.596-21.374-21.434-21.374a21.33 21.272 0 0 0-9.92 2.429 21.333 21.273 0 0 0-12.642-4.116c-8.897 0-16.526 5.404-19.77 13.102a20.836 20.778 0 0 0-1.32.47 21.345 21.285 0 0 0-13.6-4.854c-11.838 0-21.435 9.57-21.435 21.375 0 6.347 2.777 12.045 7.182 15.96z"/>
  <path d="m505.248 294.91-8.869-12.5h4.435l6.587 9.695 6.321-9.696h4.17l-8.573 12.5zm16.424-12.5-8.872 12.5h4.435l6.586-9.697 6.322 9.696h4.17l-8.57-12.5z" style="stroke-width:.695048"/>
  <path d="M508.985 285.534c0 .959-.78 1.736-1.74 1.736s-1.739-.777-1.739-1.736.779-1.736 1.74-1.736c.96 0 1.739.777 1.739 1.736zm15.986 7.639c0 .959-.779 1.736-1.74 1.736-.96 0-1.739-.777-1.739-1.736s.779-1.736 1.74-1.736c.96 0 1.739.777 1.739 1.736zm-20.592 3.125h29.851v2.778h-29.85z" style="fill:#c06;stroke-width:.695048"/>
  <path style="fill:#3cf;stroke-width:.695048" d="M547.966 289.106c-1.597 0-3.067.797-3.897 2.009v-8.706l-6.069.638v23.725h5.398l.224-1.436c.83 1.276 2.14 2.073 3.737 2.073 3.737 0 5.91-3.635 5.91-9.12 0-5.963-1.757-9.183-5.303-9.183zm-2.491 13.998c-.576 0-1.054-.415-1.405-1.116v-7.079c.51-.957 1.117-1.435 1.66-1.435.703 0 1.374.51 1.374 4.815 0 3.922-.671 4.815-1.63 4.815zm23.127-13.36h-6.07v12.02c-.382.83-.798 1.212-1.15 1.212-.382 0-.606-.318-.606-1.052v-12.18h-6.07v12.5c0 3.06 1.438 5.165 4.153 5.165 1.853 0 3.194-.83 4.216-2.36l.224 1.723h5.303zm11.53-.543c-1.788 0-3.066 1.307-3.768 3.316l-.447-2.774h-5.303v17.028h6.07v-8.322c.35-1.817.862-3.348 2.618-3.348.48 0 .863.064 1.278.191l.99-5.803a3.5 3.5 0 0 0-1.437-.287zm16.292 8.833c0-5.963-3.035-8.928-7.475-8.928-5.078 0-7.57 3.922-7.57 9.215 0 5.358 2.588 9.088 8.145 9.088 2.78 0 4.92-1.116 6.357-2.487l-2.428-3.22c-1.245.924-2.268 1.402-3.418 1.402-1.437 0-2.363-.51-2.62-3.125h8.881c.064-.574.128-1.403.128-1.945zm-5.91-1.467h-3.13c.128-2.965.639-3.635 1.66-3.635 1.215 0 1.47 1.243 1.47 3.38zm13.29-7.461c-4.345 0-6.614 2.423-6.614 5.58 0 2.615 1.31 4.145 4.217 5.293 2.364.925 2.715 1.308 2.715 2.168 0 .67-.48 1.085-1.373 1.085-1.182 0-2.492-.733-3.578-1.594l-2.78 3.125c1.63 1.625 4.058 2.646 6.677 2.646 4.28 0 7.187-2.296 7.187-5.803 0-2.839-1.469-4.241-4.184-5.326-2.652-1.083-2.94-1.37-2.94-2.04 0-.575.384-.925 1.215-.925 1.054 0 2.172.478 3.226 1.18l2.108-3.221c-1.405-1.307-3.545-2.168-5.877-2.168zm17.695 0c-1.597 0-2.843.637-4.025 2.168v-8.865l-6.069.638v23.725h6.07v-11.64c.574-.924 1.054-1.467 1.437-1.467.32 0 .511.287.511 1.276v11.83h6.07V294.24c0-3.285-1.502-5.134-3.994-5.134z"/>
<text x="100" y="30" style="font-family:'Golos Text VF'; font-weight:700;font-size:3em;fill:#c06;">
{{ .Name "-" " " | title }}
<tspan x="" y="">
{{ .Date }}
</tspan>
</text>
</svg>
